<?xml version="1.0" standalone="no"?><!DOCTYPE svg PUBLIC "-//W3C//DTD SVG 1.1//EN" "http://www.w3.org/Graphics/SVG/1.1/DTD/svg11.dtd"><svg t="1609813929714" class="icon" viewBox="0 0 1024 1024" version="1.1" xmlns="http://www.w3.org/2000/svg" p-id="2361" xmlns:xlink="http://www.w3.org/1999/xlink" width="200" height="200"><defs><style type="text/css"></style></defs><path d="M469.393452 107.53948c-198.224739 0-358.919837 156.464484-358.919837 349.503308 0 193.038825 160.695098 349.537427 358.919837 349.537427s358.919837-156.498602 358.919837-349.537427c0-193.038825-160.695098-349.503309-358.919837-349.503308m0-107.53948c259.193346 0 469.359334 204.638895 469.359334 457.042788 0 113.714811-42.647319 217.706034-113.203044 297.712405l181.131694 176.321075c14.329499 13.510671 20.095417 33.537852 15.045974 52.268555-5.049443 18.833056-20.129535 33.503734-39.440241 38.416705a56.021518 56.021518 0 0 1-53.667386-14.670678l-184.407008-179.459919a475.500548 475.500548 0 0 1-274.819323 86.454646C210.13187 914.085577 0 709.446681 0 457.042788 0 204.638895 210.165988 0 469.393452 0" fill="#696a78" p-id="2362"></path></svg>